<svg id="visual" viewBox="0 0 900 600" width="900" height="600" xmlns="http://www.w3.org/2000/svg" xmlns:xlink="http://www.w3.org/1999/xlink" version="1.1"><rect x="0" y="0" width="900" height="600" fill="#001220"></rect><defs><linearGradient id="grad1_0" x1="33.3%" y1="0%" x2="100%" y2="100%"><stop offset="20%" stop-color="#001220" stop-opacity="1"></stop><stop offset="80%" stop-color="#001220" stop-opacity="1"></stop></linearGradient></defs><defs><linearGradient id="grad2_0" x1="0%" y1="0%" x2="66.7%" y2="100%"><stop offset="20%" stop-color="#001220" stop-opacity="1"></stop><stop offset="80%" stop-color="#001220" stop-opacity="1"></stop></linearGradient></defs><g transform="translate(900, 0)"><path d="M0 459.7C-46 466.9 -91.9 474.2 -117 436.6C-142 399 -146.2 316.7 -161 278.9C-175.8 241 -201.3 247.7 -251.7 251.7C-302.2 255.8 -377.6 257.2 -398.1 229.9C-418.6 202.5 -384.3 146.4 -385.4 103.3C-386.5 60.2 -423.1 30.1 -459.7 0L0 0Z" fill="#FBAE3C"></path></g><g transform="translate(0, 600)"><path d="M0 -459.7C28.4 -413.5 56.7 -367.3 97.6 -364.2C138.4 -361 191.8 -400.8 229.9 -398.1C267.9 -395.4 290.5 -350.2 311.8 -311.8C333.1 -273.5 353.1 -242.1 359.4 -207.5C365.7 -172.9 358.4 -135 372.8 -99.9C387.3 -64.8 423.5 -32.4 459.7 0L0 0Z" fill="#FBAE3C"></path></g>
</svg>
