<svg id="visual" viewBox="0 0 900 600" width="900" height="600" xmlns="http://www.w3.org/2000/svg" xmlns:xlink="http://www.w3.org/1999/xlink" version="1.1"><rect x="0" y="0" width="900" height="600" fill="#001220"></rect><defs><linearGradient id="grad1_0" x1="33.3%" y1="0%" x2="100%" y2="100%"><stop offset="20%" stop-color="#fbae3c" stop-opacity="1"></stop><stop offset="80%" stop-color="#fbae3c" stop-opacity="1"></stop></linearGradient></defs><defs><linearGradient id="grad1_1" x1="33.3%" y1="0%" x2="100%" y2="100%"><stop offset="20%" stop-color="#fbae3c" stop-opacity="1"></stop><stop offset="80%" stop-color="#e1685e" stop-opacity="1"></stop></linearGradient></defs><defs><linearGradient id="grad1_2" x1="33.3%" y1="0%" x2="100%" y2="100%"><stop offset="20%" stop-color="#96446e" stop-opacity="1"></stop><stop offset="80%" stop-color="#e1685e" stop-opacity="1"></stop></linearGradient></defs><defs><linearGradient id="grad1_3" x1="33.3%" y1="0%" x2="100%" y2="100%"><stop offset="20%" stop-color="#96446e" stop-opacity="1"></stop><stop offset="80%" stop-color="#3d3056" stop-opacity="1"></stop></linearGradient></defs><defs><linearGradient id="grad1_4" x1="33.3%" y1="0%" x2="100%" y2="100%"><stop offset="20%" stop-color="#001220" stop-opacity="1"></stop><stop offset="80%" stop-color="#3d3056" stop-opacity="1"></stop></linearGradient></defs><defs><linearGradient id="grad2_0" x1="0%" y1="0%" x2="66.7%" y2="100%"><stop offset="20%" stop-color="#fbae3c" stop-opacity="1"></stop><stop offset="80%" stop-color="#fbae3c" stop-opacity="1"></stop></linearGradient></defs><defs><linearGradient id="grad2_1" x1="0%" y1="0%" x2="66.7%" y2="100%"><stop offset="20%" stop-color="#e1685e" stop-opacity="1"></stop><stop offset="80%" stop-color="#fbae3c" stop-opacity="1"></stop></linearGradient></defs><defs><linearGradient id="grad2_2" x1="0%" y1="0%" x2="66.7%" y2="100%"><stop offset="20%" stop-color="#e1685e" stop-opacity="1"></stop><stop offset="80%" stop-color="#96446e" stop-opacity="1"></stop></linearGradient></defs><defs><linearGradient id="grad2_3" x1="0%" y1="0%" x2="66.7%" y2="100%"><stop offset="20%" stop-color="#3d3056" stop-opacity="1"></stop><stop offset="80%" stop-color="#96446e" stop-opacity="1"></stop></linearGradient></defs><defs><linearGradient id="grad2_4" x1="0%" y1="0%" x2="66.7%" y2="100%"><stop offset="20%" stop-color="#3d3056" stop-opacity="1"></stop><stop offset="80%" stop-color="#001220" stop-opacity="1"></stop></linearGradient></defs><g transform="translate(900, 0)"><path d="M0 432.7C-48.8 433.2 -97.6 433.7 -133.7 411.5C-169.8 389.3 -193.2 344.3 -230.4 317.1C-267.6 289.9 -318.6 280.5 -344.6 250.4C-370.7 220.3 -371.8 169.4 -382.3 124.2C-392.8 79 -412.8 39.5 -432.7 0L0 0Z" fill="#18223c"></path><path d="M0 346.1C-39 346.5 -78.1 347 -107 329.2C-135.8 311.4 -154.6 275.5 -184.3 253.7C-214.1 232 -254.9 224.4 -275.7 200.3C-296.6 176.2 -297.4 135.5 -305.9 99.4C-314.3 63.2 -330.2 31.6 -346.1 0L0 0Z" fill="#683a67"></path><path d="M0 259.6C-29.3 259.9 -58.6 260.2 -80.2 246.9C-101.9 233.6 -115.9 206.6 -138.2 190.3C-160.6 174 -191.2 168.3 -206.8 150.2C-222.4 132.2 -223.1 101.6 -229.4 74.5C-235.7 47.4 -247.7 23.7 -259.6 0L0 0Z" fill="#c0526a"></path><path d="M0 173.1C-19.5 173.3 -39 173.5 -53.5 164.6C-67.9 155.7 -77.3 137.7 -92.2 126.9C-107 116 -127.4 112.2 -137.9 100.2C-148.3 88.1 -148.7 67.8 -152.9 49.7C-157.1 31.6 -165.1 15.8 -173.1 0L0 0Z" fill="#f6884d"></path><path d="M0 86.5C-9.8 86.6 -19.5 86.7 -26.7 82.3C-34 77.9 -38.6 68.9 -46.1 63.4C-53.5 58 -63.7 56.1 -68.9 50.1C-74.1 44.1 -74.4 33.9 -76.5 24.8C-78.6 15.8 -82.6 7.9 -86.5 0L0 0Z" fill="#fbae3c"></path></g><g transform="translate(0, 600)"><path d="M0 -432.7C46.1 -424.3 92.1 -416 128.2 -394.7C164.3 -373.4 190.5 -339.1 230.4 -317.1C270.3 -295.2 324.1 -285.5 350 -254.3C376 -223.2 374.1 -170.5 383.3 -124.5C392.4 -78.6 412.5 -39.3 432.7 0L0 0Z" fill="#18223c"></path><path d="M0 -346.1C36.9 -339.5 73.7 -332.8 102.6 -315.8C131.5 -298.7 152.4 -271.3 184.3 -253.7C216.3 -236.1 259.3 -228.4 280 -203.5C300.8 -178.5 299.3 -136.4 306.6 -99.6C313.9 -62.9 330 -31.4 346.1 0L0 0Z" fill="#683a67"></path><path d="M0 -259.6C27.6 -254.6 55.3 -249.6 76.9 -236.8C98.6 -224 114.3 -203.5 138.2 -190.3C162.2 -177.1 194.5 -171.3 210 -152.6C225.6 -133.9 224.5 -102.3 230 -74.7C235.4 -47.1 247.5 -23.6 259.6 0L0 0Z" fill="#c0526a"></path><path d="M0 -173.1C18.4 -169.7 36.9 -166.4 51.3 -157.9C65.7 -149.4 76.2 -135.6 92.2 -126.9C108.1 -118.1 129.6 -114.2 140 -101.7C150.4 -89.3 149.7 -68.2 153.3 -49.8C157 -31.4 165 -15.7 173.1 0L0 0Z" fill="#f6884d"></path><path d="M0 -86.5C9.2 -84.9 18.4 -83.2 25.6 -78.9C32.9 -74.7 38.1 -67.8 46.1 -63.4C54.1 -59 64.8 -57.1 70 -50.9C75.2 -44.6 74.8 -34.1 76.7 -24.9C78.5 -15.7 82.5 -7.9 86.5 0L0 0Z" fill="#fbae3c"></path></g></svg>