<svg id="visual" viewBox="0 0 900 600" width="900" height="600" xmlns="http://www.w3.org/2000/svg" xmlns:xlink="http://www.w3.org/1999/xlink" version="1.1"><rect x="0" y="0" width="900" height="600" fill="#ffffff"></rect><defs><linearGradient id="grad1_0" x1="33.3%" y1="0%" x2="100%" y2="100%"><stop offset="20%" stop-color="#fbae3c" stop-opacity="1"></stop><stop offset="80%" stop-color="#fbae3c" stop-opacity="1"></stop></linearGradient></defs><defs><linearGradient id="grad1_1" x1="33.3%" y1="0%" x2="100%" y2="100%"><stop offset="20%" stop-color="#fbae3c" stop-opacity="1"></stop><stop offset="80%" stop-color="#ffd69f" stop-opacity="1"></stop></linearGradient></defs><defs><linearGradient id="grad1_2" x1="33.3%" y1="0%" x2="100%" y2="100%"><stop offset="20%" stop-color="#ffffff" stop-opacity="1"></stop><stop offset="80%" stop-color="#ffd69f" stop-opacity="1"></stop></linearGradient></defs><defs><linearGradient id="grad2_0" x1="0%" y1="0%" x2="66.7%" y2="100%"><stop offset="20%" stop-color="#fbae3c" stop-opacity="1"></stop><stop offset="80%" stop-color="#fbae3c" stop-opacity="1"></stop></linearGradient></defs><defs><linearGradient id="grad2_1" x1="0%" y1="0%" x2="66.7%" y2="100%"><stop offset="20%" stop-color="#ffd69f" stop-opacity="1"></stop><stop offset="80%" stop-color="#fbae3c" stop-opacity="1"></stop></linearGradient></defs><defs><linearGradient id="grad2_2" x1="0%" y1="0%" x2="66.7%" y2="100%"><stop offset="20%" stop-color="#ffd69f" stop-opacity="1"></stop><stop offset="80%" stop-color="#ffffff" stop-opacity="1"></stop></linearGradient></defs><g transform="translate(900, 0)"><path d="M0 486.7C-41.1 482 -82.3 477.3 -126 470.2C-169.7 463.1 -215.9 453.6 -242 419.2C-268.1 384.7 -274 325.2 -283.5 283.5C-293.1 241.9 -306.1 218.2 -340.3 196.5C-374.6 174.8 -429.9 155.1 -457.8 122.7C-485.8 90.3 -486.3 45.1 -486.7 0L0 0Z" fill="#ffeacf"></path><path d="M0 324.5C-27.4 321.3 -54.9 318.2 -84 313.4C-113.1 308.7 -143.9 302.4 -161.3 279.4C-178.7 256.5 -182.7 216.8 -189 189C-195.4 161.3 -204.1 145.5 -226.9 131C-249.7 116.5 -286.6 103.4 -305.2 81.8C-323.8 60.2 -324.2 30.1 -324.5 0L0 0Z" fill="#ffc270"></path><path d="M0 162.2C-13.7 160.7 -27.4 159.1 -42 156.7C-56.6 154.4 -72 151.2 -80.7 139.7C-89.4 128.2 -91.3 108.4 -94.5 94.5C-97.7 80.6 -102 72.7 -113.4 65.5C-124.9 58.3 -143.3 51.7 -152.6 40.9C-161.9 30.1 -162.1 15 -162.2 0L0 0Z" fill="#fbae3c"></path></g><g transform="translate(0, 600)"><path d="M0 -486.7C41.3 -475.8 82.7 -464.8 120.6 -450.1C158.5 -435.5 193 -417.1 231.5 -401C270 -384.8 312.4 -370.8 344.2 -344.2C376 -317.5 397.2 -278.3 414.8 -239.5C432.4 -200.7 446.5 -162.5 457.8 -122.7C469.2 -82.9 478 -41.4 486.7 0L0 0Z" fill="#ffeacf"></path><path d="M0 -324.5C27.6 -317.2 55.1 -309.9 80.4 -300.1C105.7 -290.3 128.7 -278.1 154.3 -267.3C180 -256.5 208.2 -247.2 229.5 -229.5C250.7 -211.7 264.8 -185.5 276.6 -159.7C288.3 -133.8 297.6 -108.3 305.2 -81.8C312.8 -55.2 318.7 -27.6 324.5 0L0 0Z" fill="#ffc270"></path><path d="M0 -162.2C13.8 -158.6 27.6 -154.9 40.2 -150C52.8 -145.2 64.3 -139 77.2 -133.7C90 -128.3 104.1 -123.6 114.7 -114.7C125.3 -105.8 132.4 -92.8 138.3 -79.8C144.1 -66.9 148.8 -54.2 152.6 -40.9C156.4 -27.6 159.3 -13.8 162.2 0L0 0Z" fill="#fbae3c"></path></g></svg>